<mxfile host="app.diagrams.net" modified="2020-11-22T03:13:07.567Z" agent="5.0 (Macintosh; Intel Mac OS X 10_15_6) AppleWebKit/537.36 (KHTML, like Gecko) Chrome/86.0.4240.193 Safari/537.36" etag="WsFrOc4tpl4srsEfX2sz" version="13.10.0" type="github">
  <diagram id="tp6UrvqUsAywVeo3FG16" name="Page-1">
    <mxGraphModel dx="946" dy="538" grid="1" gridSize="10" guides="1" tooltips="1" connect="1" arrows="1" fold="1" page="1" pageScale="1" pageWidth="827" pageHeight="1169" math="0" shadow="0">
      <root>
        <mxCell id="0" />
        <mxCell id="1" parent="0" />
        <mxCell id="KvDXXfHtCnm_ORZeJppr-9" value="" style="edgeStyle=orthogonalEdgeStyle;rounded=0;orthogonalLoop=1;jettySize=auto;html=1;" edge="1" parent="1" source="KvDXXfHtCnm_ORZeJppr-1" target="KvDXXfHtCnm_ORZeJppr-2">
          <mxGeometry relative="1" as="geometry" />
        </mxCell>
        <mxCell id="KvDXXfHtCnm_ORZeJppr-1" value="客户端开始远程调用" style="rounded=1;whiteSpace=wrap;html=1;sketch=0;fillColor=#f5f5f5;strokeColor=#666666;fontColor=#333333;" vertex="1" parent="1">
          <mxGeometry x="180" y="170" width="120" height="60" as="geometry" />
        </mxCell>
        <mxCell id="KvDXXfHtCnm_ORZeJppr-10" value="" style="edgeStyle=orthogonalEdgeStyle;rounded=0;orthogonalLoop=1;jettySize=auto;html=1;" edge="1" parent="1" source="KvDXXfHtCnm_ORZeJppr-2" target="KvDXXfHtCnm_ORZeJppr-3">
          <mxGeometry relative="1" as="geometry" />
        </mxCell>
        <mxCell id="KvDXXfHtCnm_ORZeJppr-2" value="将RequestId-&amp;gt;DefaultFuture的映射关系存到Map中" style="rounded=1;whiteSpace=wrap;html=1;fillColor=#dae8fc;strokeColor=#6c8ebf;sketch=0;" vertex="1" parent="1">
          <mxGeometry x="97.5" y="280" width="285" height="60" as="geometry" />
        </mxCell>
        <mxCell id="KvDXXfHtCnm_ORZeJppr-11" value="" style="edgeStyle=orthogonalEdgeStyle;rounded=0;orthogonalLoop=1;jettySize=auto;html=1;" edge="1" parent="1" source="KvDXXfHtCnm_ORZeJppr-3" target="KvDXXfHtCnm_ORZeJppr-8">
          <mxGeometry relative="1" as="geometry" />
        </mxCell>
        <mxCell id="KvDXXfHtCnm_ORZeJppr-3" value="将请求包装成Request对象，含有RequestId属性，发起调用" style="rounded=1;whiteSpace=wrap;html=1;fillColor=#d5e8d4;strokeColor=#82b366;sketch=0;" vertex="1" parent="1">
          <mxGeometry x="127.5" y="380" width="225" height="60" as="geometry" />
        </mxCell>
        <mxCell id="KvDXXfHtCnm_ORZeJppr-12" value="" style="edgeStyle=orthogonalEdgeStyle;rounded=0;orthogonalLoop=1;jettySize=auto;html=1;" edge="1" parent="1" source="KvDXXfHtCnm_ORZeJppr-4" target="KvDXXfHtCnm_ORZeJppr-5">
          <mxGeometry relative="1" as="geometry" />
        </mxCell>
        <mxCell id="KvDXXfHtCnm_ORZeJppr-4" value="客户端异步收到响应" style="rounded=1;whiteSpace=wrap;html=1;fillColor=#f5f5f5;strokeColor=#666666;fontColor=#333333;" vertex="1" parent="1">
          <mxGeometry x="580" y="170" width="130" height="60" as="geometry" />
        </mxCell>
        <mxCell id="KvDXXfHtCnm_ORZeJppr-13" value="" style="edgeStyle=orthogonalEdgeStyle;rounded=0;orthogonalLoop=1;jettySize=auto;html=1;" edge="1" parent="1" source="KvDXXfHtCnm_ORZeJppr-5" target="KvDXXfHtCnm_ORZeJppr-6">
          <mxGeometry relative="1" as="geometry" />
        </mxCell>
        <mxCell id="KvDXXfHtCnm_ORZeJppr-5" value="从服务端返回的Reponse对象中解析出RequestId的值，这个值是其对应的Request对象赋给它的&lt;br&gt;" style="rounded=1;whiteSpace=wrap;html=1;fillColor=#dae8fc;strokeColor=#6c8ebf;" vertex="1" parent="1">
          <mxGeometry x="502.5" y="280" width="285" height="60" as="geometry" />
        </mxCell>
        <mxCell id="KvDXXfHtCnm_ORZeJppr-14" value="" style="edgeStyle=orthogonalEdgeStyle;rounded=0;orthogonalLoop=1;jettySize=auto;html=1;" edge="1" parent="1" source="KvDXXfHtCnm_ORZeJppr-6" target="KvDXXfHtCnm_ORZeJppr-7">
          <mxGeometry relative="1" as="geometry" />
        </mxCell>
        <mxCell id="KvDXXfHtCnm_ORZeJppr-6" value="根据RequestId从map中找到对应的DefaultFuture，设置DefaultFuture的Response" style="rounded=1;whiteSpace=wrap;html=1;fillColor=#d5e8d4;strokeColor=#82b366;" vertex="1" parent="1">
          <mxGeometry x="532.5" y="380" width="225" height="60" as="geometry" />
        </mxCell>
        <mxCell id="KvDXXfHtCnm_ORZeJppr-7" value="唤醒阻塞的线程，DefaultFuture#&lt;br&gt;get方法向下执行，返回结果" style="rounded=1;whiteSpace=wrap;html=1;fillColor=#ffe6cc;strokeColor=#d79b00;" vertex="1" parent="1">
          <mxGeometry x="532.5" y="470" width="225" height="60" as="geometry" />
        </mxCell>
        <mxCell id="KvDXXfHtCnm_ORZeJppr-8" value="调用DefaultFuture#get方法，阻塞线程获取结果" style="rounded=1;whiteSpace=wrap;html=1;fillColor=#ffe6cc;strokeColor=#d79b00;" vertex="1" parent="1">
          <mxGeometry x="127.5" y="470" width="225" height="60" as="geometry" />
        </mxCell>
      </root>
    </mxGraphModel>
  </diagram>
</mxfile>
